<?xml version="1.0" encoding="UTF-8" standalone="no"?>
<svg width="112px" height="78px" viewBox="0 0 112 78" version="1.1" xmlns="http://www.w3.org/2000/svg" xmlns:xlink="http://www.w3.org/1999/xlink" xmlns:sketch="http://www.bohemiancoding.com/sketch/ns">
    <!-- Generator: Sketch 3.3.3 (12081) - http://www.bohemiancoding.com/sketch -->
    <title>Group + Oval 2</title>
    <desc>Created with Sketch.</desc>
    <defs></defs>
    <g id="Page-1-Copy-3" stroke="none" stroke-width="1" fill="none" fill-rule="evenodd" sketch:type="MSPage">
        <g id="Desktop" sketch:type="MSArtboardGroup" transform="translate(-323.000000, -346.000000)">
            <g id="Group-+-Oval-2" sketch:type="MSLayerGroup" transform="translate(323.000000, 332.000000)">
                <g id="Group" transform="translate(31.000000, 0.000000)" sketch:type="MSShapeGroup">
                    <circle id="Oval-1" fill="#FFDE70" cx="48" cy="47" r="16"></circle>
                    <rect id="Rectangle-1" fill="#FFDD70" x="66" y="44" width="15" height="6" rx="10"></rect>
                    <rect id="Rectangle-1-Copy" fill="#FFDD70" x="15" y="44" width="15" height="6" rx="10"></rect>
                    <rect id="Rectangle-1-Copy-2" fill="#FFDD70" transform="translate(48.500000, 22.000000) rotate(-270.000000) translate(-48.500000, -22.000000) " x="41" y="19" width="15" height="6" rx="10"></rect>
                    <rect id="Rectangle-1-Copy-3" fill="#FFDD70" transform="translate(48.500000, 73.000000) rotate(-270.000000) translate(-48.500000, -73.000000) " x="41" y="70" width="15" height="6" rx="10"></rect>
                    <g transform="translate(48.000000, 47.500000) rotate(-315.000000) translate(-48.000000, -47.500000) translate(15.000000, 14.000000)" fill="#FFDD70">
                        <rect id="Rectangle-1-Copy-7" x="51" y="30" width="15" height="6" rx="10"></rect>
                        <rect id="Rectangle-1-Copy-6" x="0" y="30" width="15" height="6" rx="10"></rect>
                        <rect id="Rectangle-1-Copy-5" transform="translate(33.500000, 8.000000) rotate(-270.000000) translate(-33.500000, -8.000000) " x="26" y="5" width="15" height="6" rx="10"></rect>
                        <rect id="Rectangle-1-Copy-4" transform="translate(33.500000, 59.000000) rotate(-270.000000) translate(-33.500000, -59.000000) " x="26" y="56" width="15" height="6" rx="10"></rect>
                    </g>
                </g>
                <path d="M19.6323529,91.9599018 C8.67654493,91.2866021 0,82.2183113 0,71.1304348 C0,59.6044922 9.37568406,50.2608696 20.9411765,50.2608696 C21.8760867,50.2608696 22.7966877,50.3219254 23.6991837,50.4402542 C24.9068092,40.0588306 33.7590549,32 44.5,32 C53.3064285,32 60.8432262,37.4173471 63.9380015,45.0904984 L63.9380015,45.0904984 C64.4350348,45.0593086 64.9362506,45.0434783 65.4411765,45.0434783 C78.4523554,45.0434783 89,55.5550537 89,68.5217391 C89,80.6066617 79.8381056,90.5590268 68.0588235,91.8567075 L68.0588235,92 L19.6323529,92 L19.6323529,91.9599018 Z" id="Oval-2" fill="#FFFFFF" sketch:type="MSShapeGroup"></path>
            </g>
        </g>
    </g>
</svg>