<?xml version="1.0" encoding="UTF-8" standalone="no"?>
<svg width="117px" height="81px" viewBox="0 0 117 81" version="1.1" xmlns="http://www.w3.org/2000/svg" xmlns:xlink="http://www.w3.org/1999/xlink" xmlns:sketch="http://www.bohemiancoding.com/sketch/ns">
    <!-- Generator: Sketch 3.3.3 (12081) - http://www.bohemiancoding.com/sketch -->
    <title>Oval 2 Copy 3 + Oval 2</title>
    <desc>Created with Sketch.</desc>
    <defs>
        <filter x="-50%" y="-50%" width="200%" height="200%" filterUnits="objectBoundingBox" id="filter-1">
            <feOffset dx="1" dy="2" in="SourceAlpha" result="shadowOffsetOuter1"></feOffset>
            <feGaussianBlur stdDeviation="2" in="shadowOffsetOuter1" result="shadowBlurOuter1"></feGaussianBlur>
            <feColorMatrix values="0 0 0 0 0   0 0 0 0 0   0 0 0 0 0  0 0 0 0.35 0" in="shadowBlurOuter1" type="matrix" result="shadowMatrixOuter1"></feColorMatrix>
            <feMerge>
                <feMergeNode in="shadowMatrixOuter1"></feMergeNode>
                <feMergeNode in="SourceGraphic"></feMergeNode>
            </feMerge>
        </filter>
        <filter x="-50%" y="-50%" width="200%" height="200%" filterUnits="objectBoundingBox" id="filter-2">
            <feOffset dx="1" dy="2" in="SourceAlpha" result="shadowOffsetOuter1"></feOffset>
            <feGaussianBlur stdDeviation="2" in="shadowOffsetOuter1" result="shadowBlurOuter1"></feGaussianBlur>
            <feColorMatrix values="0 0 0 0 0   0 0 0 0 0   0 0 0 0 0  0 0 0 0.35 0" in="shadowBlurOuter1" type="matrix" result="shadowMatrixOuter1"></feColorMatrix>
            <feMerge>
                <feMergeNode in="shadowMatrixOuter1"></feMergeNode>
                <feMergeNode in="SourceGraphic"></feMergeNode>
            </feMerge>
        </filter>
    </defs>
    <g id="Page-1-Copy-3" stroke="none" stroke-width="1" fill="none" fill-rule="evenodd" sketch:type="MSPage">
        <g id="Desktop" sketch:type="MSArtboardGroup" transform="translate(-346.000000, -341.000000)" fill="#FFFFFF">
            <g id="Oval-2-Copy-3-+-Oval-2" sketch:type="MSLayerGroup" transform="translate(349.000000, 343.000000)">
                <path d="M39.6323529,59.9599018 C28.6765449,59.2866021 20,50.2183113 20,39.1304348 C20,27.6044922 29.3756841,18.2608696 40.9411765,18.2608696 C41.8760867,18.2608696 42.7966877,18.3219254 43.6991837,18.4402542 C44.9068092,8.0588306 53.7590549,0 64.5,0 C73.3064285,0 80.8432262,5.41734712 83.9380015,13.0904984 L83.9380015,13.0904984 C84.4350348,13.0593086 84.9362506,13.0434783 85.4411765,13.0434783 C98.4523554,13.0434783 109,23.5550537 109,36.5217391 C109,48.6066617 99.8381056,58.5590268 88.0588235,59.8567075 L88.0588235,60 L39.6323529,60 L39.6323529,59.9599018 Z" id="Oval-2-Copy-3" filter="url(#filter-1)" sketch:type="MSShapeGroup"></path>
                <path d="M19.6323529,72.9599018 C8.67654493,72.2866021 0,63.2183113 0,52.1304348 C0,40.6044922 9.37568406,31.2608696 20.9411765,31.2608696 C21.8760867,31.2608696 22.7966877,31.3219254 23.6991837,31.4402542 C24.9068092,21.0588306 33.7590549,13 44.5,13 C53.3064285,13 60.8432262,18.4173471 63.9380015,26.0904984 L63.9380015,26.0904984 C64.4350348,26.0593086 64.9362506,26.0434783 65.4411765,26.0434783 C78.4523554,26.0434783 89,36.5550537 89,49.5217391 C89,61.6066617 79.8381056,71.5590268 68.0588235,72.8567075 L68.0588235,73 L19.6323529,73 L19.6323529,72.9599018 Z" id="Oval-2" filter="url(#filter-2)" sketch:type="MSShapeGroup"></path>
            </g>
        </g>
    </g>
</svg>