<?xml version="1.0" encoding="UTF-8" standalone="no"?>
<svg width="66px" height="67px" viewBox="0 0 66 67" version="1.1" xmlns="http://www.w3.org/2000/svg" xmlns:xlink="http://www.w3.org/1999/xlink" xmlns:sketch="http://www.bohemiancoding.com/sketch/ns">
    <!-- Generator: Sketch 3.3.3 (12081) - http://www.bohemiancoding.com/sketch -->
    <title>Group</title>
    <desc>Created with Sketch.</desc>
    <defs></defs>
    <g id="Page-1-Copy-3" stroke="none" stroke-width="1" fill="none" fill-rule="evenodd" sketch:type="MSPage">
        <g id="Desktop" sketch:type="MSArtboardGroup" transform="translate(-360.000000, -354.000000)">
            <g id="Group" sketch:type="MSLayerGroup" transform="translate(345.000000, 340.000000)">
                <circle id="Oval-1" fill="#FFDE70" sketch:type="MSShapeGroup" cx="48" cy="47" r="16"></circle>
                <rect id="Rectangle-1" fill="#FFDD70" sketch:type="MSShapeGroup" x="66" y="44" width="15" height="6" rx="10"></rect>
                <rect id="Rectangle-1-Copy" fill="#FFDD70" sketch:type="MSShapeGroup" x="15" y="44" width="15" height="6" rx="10"></rect>
                <rect id="Rectangle-1-Copy-2" fill="#FFDD70" sketch:type="MSShapeGroup" transform="translate(48.500000, 22.000000) rotate(-270.000000) translate(-48.500000, -22.000000) " x="41" y="19" width="15" height="6" rx="10"></rect>
                <rect id="Rectangle-1-Copy-3" fill="#FFDD70" sketch:type="MSShapeGroup" transform="translate(48.500000, 73.000000) rotate(-270.000000) translate(-48.500000, -73.000000) " x="41" y="70" width="15" height="6" rx="10"></rect>
                <g transform="translate(48.000000, 47.500000) rotate(-315.000000) translate(-48.000000, -47.500000) translate(15.000000, 14.000000)" fill="#FFDD70" sketch:type="MSShapeGroup">
                    <rect id="Rectangle-1-Copy-7" x="51" y="30" width="15" height="6" rx="10"></rect>
                    <rect id="Rectangle-1-Copy-6" x="0" y="30" width="15" height="6" rx="10"></rect>
                    <rect id="Rectangle-1-Copy-5" transform="translate(33.500000, 8.000000) rotate(-270.000000) translate(-33.500000, -8.000000) " x="26" y="5" width="15" height="6" rx="10"></rect>
                    <rect id="Rectangle-1-Copy-4" transform="translate(33.500000, 59.000000) rotate(-270.000000) translate(-33.500000, -59.000000) " x="26" y="56" width="15" height="6" rx="10"></rect>
                </g>
            </g>
        </g>
    </g>
</svg>